<svg width="21" height="20" viewBox="0 0 21 20" fill="none" xmlns="http://www.w3.org/2000/svg">
<path fill-rule="evenodd" clip-rule="evenodd" d="M6.6464 6.86755C7.64123 5.94086 8.99051 5.42025 10.3974 5.42025C11.8043 5.42025 13.1536 5.94086 14.1484 6.86755C15.1433 7.79424 15.7022 9.0511 15.7022 10.3616C15.7022 11.6722 15.1433 12.929 14.1484 13.8557C13.1536 14.7824 11.8043 15.303 10.3974 15.303C8.99051 15.303 7.64123 14.7824 6.6464 13.8557C5.65156 12.929 5.09267 11.6722 5.09267 10.3616C5.09267 9.0511 5.65156 7.79424 6.6464 6.86755ZM9.0796 13.3252C9.4974 13.4864 9.94519 13.5694 10.3974 13.5694C11.3107 13.5694 12.1866 13.2314 12.8324 12.6298C13.4782 12.0283 13.841 11.2124 13.841 10.3616C13.841 9.51089 13.4782 8.69499 12.8324 8.09342C12.1866 7.49186 11.3107 7.1539 10.3974 7.1539C9.94519 7.1539 9.4974 7.23687 9.0796 7.39807C8.6618 7.55928 8.28219 7.79556 7.96242 8.09342C7.64265 8.39129 7.38899 8.7449 7.21594 9.13408C7.04288 9.52326 6.95381 9.94039 6.95381 10.3616C6.95381 10.7829 7.04288 11.2 7.21594 11.5892C7.38899 11.9784 7.64265 12.332 7.96242 12.6298C8.28219 12.9277 8.6618 13.164 9.0796 13.3252Z" fill="white"/>
<path d="M16.8781 6.15646C17.1133 5.93741 17.2454 5.64031 17.2454 5.33052C17.2454 5.02074 17.1133 4.72364 16.8781 4.50459C16.643 4.28554 16.324 4.16247 15.9915 4.16247C15.6589 4.16247 15.34 4.28554 15.1048 4.50459C14.8696 4.72364 14.7375 5.02074 14.7375 5.33052C14.7375 5.64031 14.8696 5.93741 15.1048 6.15646C15.34 6.37551 15.6589 6.49857 15.9915 6.49857C16.324 6.49857 16.643 6.37551 16.8781 6.15646Z" fill="white"/>
<path fill-rule="evenodd" clip-rule="evenodd" d="M6.14261 0.805728C7.24347 0.758942 7.59437 0.748047 10.3974 0.748047C13.2012 0.748047 13.5514 0.759583 14.6515 0.805728C15.7503 0.852514 16.5017 1.01595 17.158 1.25244C17.8464 1.49397 18.47 1.87234 18.9855 2.36121C19.5104 2.84145 19.9167 3.42259 20.1758 4.06409C20.431 4.67551 20.6058 5.37474 20.656 6.39827C20.7062 7.42372 20.7179 7.75058 20.7179 10.3616C20.7179 12.9727 20.7062 13.2995 20.656 14.325C20.6058 15.3485 20.431 16.0477 20.1764 16.6592C19.9172 17.3004 19.511 17.8813 18.9861 18.3614C18.4701 18.8511 17.8461 19.2292 17.158 19.4702C16.5017 19.708 15.751 19.8707 14.6522 19.9175C13.5514 19.9643 13.2005 19.9752 10.3974 19.9752C7.59437 19.9752 7.24347 19.9643 6.14261 19.9175C5.04382 19.8707 4.29318 19.708 3.63679 19.4708C2.94842 19.2293 2.32482 18.8509 1.80937 18.3621C1.28372 17.8814 0.877776 17.3001 0.619075 16.6592C0.363815 16.0477 0.189054 15.3485 0.138827 14.325C0.0886009 13.2995 0.0769043 12.9733 0.0769043 10.3616C0.0769043 7.74994 0.0892888 7.42372 0.138827 6.39891C0.189054 5.37538 0.364503 4.67551 0.618387 4.06409C0.877679 3.42286 1.28387 2.84197 1.80869 2.36185C2.32471 1.8722 2.94876 1.49406 3.63679 1.25308C4.29318 1.0153 5.04382 0.852514 6.14261 0.805728ZM14.5683 2.53617C13.4798 2.49003 13.153 2.48041 10.3974 2.48041C7.64184 2.48041 7.31502 2.49003 6.22655 2.53617C5.22065 2.57911 4.67435 2.73549 4.31038 2.86752C3.86206 3.02132 3.45649 3.26683 3.12352 3.58598C2.76299 3.92245 2.53869 4.2429 2.35223 4.69154C2.20981 5.03058 2.04262 5.53946 1.99652 6.47646C1.94698 7.49037 1.93666 7.7948 1.93666 10.3616C1.93666 12.9285 1.94698 13.2329 1.99652 14.2468C2.04262 15.1838 2.2105 15.6927 2.35223 16.0317C2.51745 16.4493 2.781 16.8271 3.12352 17.1373C3.45653 17.4564 3.86209 17.7019 4.31038 17.8557C4.67435 17.9884 5.22065 18.1441 6.22655 18.1871C7.31502 18.2332 7.64115 18.2428 10.3974 18.2428C13.1537 18.2428 13.4798 18.2332 14.5683 18.1871C15.5742 18.1441 16.1205 17.9878 16.4845 17.8557C16.9328 17.702 17.3384 17.4564 17.6713 17.1373C18.0139 16.8271 18.2774 16.4493 18.4426 16.0317C18.585 15.6927 18.7522 15.1838 18.7983 14.2468C18.8479 13.2329 18.8582 12.9285 18.8582 10.3616C18.8582 7.7948 18.8479 7.49037 18.7983 6.47646C18.7522 5.53946 18.5843 5.03058 18.4426 4.69154C18.2561 4.2429 18.0325 3.92245 17.6713 3.58598C17.3101 3.25014 16.9661 3.04121 16.4845 2.86752C16.1205 2.73485 15.5742 2.57911 14.5683 2.53617Z" fill="white"/>
</svg>
