<svg width="24" height="16" viewBox="0 0 24 16" fill="none" xmlns="http://www.w3.org/2000/svg">
<path fill-rule="evenodd" clip-rule="evenodd" d="M20.6769 0.944834C21.6417 1.18973 22.405 1.91084 22.6642 2.82241C23.1394 4.4823 23.1538 7.92452 23.1538 7.92452C23.1538 7.92452 23.1538 11.3804 22.6786 13.0266C22.4194 13.9382 21.6561 14.6593 20.6913 14.9042C18.9489 15.3532 11.9358 15.3532 11.9358 15.3532C11.9358 15.3532 4.92283 15.3532 3.18037 14.9042C2.21554 14.6593 1.45232 13.9382 1.19311 13.0266C0.717896 11.3668 0.717896 7.92452 0.717896 7.92452C0.717896 7.92452 0.717896 4.4823 1.17871 2.83602C1.43792 1.92444 2.20114 1.20334 3.16597 0.958444C4.90843 0.509452 11.9214 0.49585 11.9214 0.49585C11.9214 0.49585 18.9345 0.49585 20.6769 0.944834ZM15.5072 7.92453L9.68937 11.1082V4.74081L15.5072 7.92453Z" fill="white"/>
</svg>
