<svg width="22" height="21" viewBox="0 0 22 21" fill="none" xmlns="http://www.w3.org/2000/svg">
<path d="M21.0769 2.35205V19.4971C21.0769 19.8891 20.917 20.2651 20.6324 20.5422C20.3478 20.8194 19.9617 20.9751 19.5592 20.9751H1.95364C1.55111 20.9751 1.16507 20.8194 0.880444 20.5422C0.595816 20.2651 0.435913 19.8891 0.435913 19.4971L0.435913 2.35205C0.435913 1.96005 0.595816 1.58411 0.880444 1.30693C1.16507 1.02974 1.55111 0.874023 1.95364 0.874023L19.5592 0.874023C19.9617 0.874023 20.3478 1.02974 20.6324 1.30693C20.917 1.58411 21.0769 1.96005 21.0769 2.35205ZM6.5068 8.55975H3.47136V18.0191H6.5068V8.55975ZM6.77999 5.30809C6.78159 5.08449 6.73795 4.86278 6.65156 4.6556C6.56517 4.44842 6.43772 4.25985 6.27649 4.10064C6.11526 3.94143 5.92341 3.81471 5.71189 3.72771C5.50037 3.64071 5.27333 3.59513 5.04372 3.59359H4.98908C4.52215 3.59359 4.07435 3.77422 3.74418 4.09576C3.41401 4.41729 3.22852 4.85338 3.22852 5.30809C3.22852 5.76281 3.41401 6.1989 3.74418 6.52043C4.07435 6.84197 4.52215 7.0226 4.98908 7.0226C5.2187 7.0281 5.44719 6.98949 5.66148 6.90897C5.87578 6.82844 6.07168 6.70759 6.23799 6.55331C6.40431 6.39903 6.53778 6.21435 6.63078 6.00982C6.72377 5.80529 6.77448 5.58492 6.77999 5.3613V5.30809ZM18.0415 12.2725C18.0415 9.42883 16.1838 8.32326 14.3383 8.32326C13.734 8.2938 13.1323 8.41914 12.5933 8.68678C12.0543 8.95442 11.5968 9.355 11.2664 9.84858H11.1814V8.55975H8.32807V18.0191H11.3635V12.9879C11.3196 12.4726 11.4863 11.9613 11.8273 11.565C12.1683 11.1687 12.6561 10.9194 13.1848 10.8714H13.3001C14.2654 10.8714 14.9818 11.4626 14.9818 12.9524V18.0191H18.0172L18.0415 12.2725Z" fill="white"/>
</svg>
