<svg width="364" height="321" viewBox="0 0 364 321" fill="none" xmlns="http://www.w3.org/2000/svg">
<path fill-rule="evenodd" clip-rule="evenodd" d="M396.621 145.144L386.496 118.138L266.922 162.969L360.995 76.609L341.491 55.3625L244.98 143.96L299.201 24.6959L272.945 12.7596L220.977 127.069L227.655 1.67859L198.855 0.144635L191.788 132.822L145.144 8.41332L118.138 18.5386L164.782 142.947L72.2307 47.6191L51.537 67.7098L139.005 157.802L24.6959 105.834L12.7605 132.09L132.024 186.31L1.05421 183.001L0.32654 211.833L127.988 215.059L8.41345 259.891L18.5388 286.897L138.113 242.065L44.0402 328.426L63.5433 349.672L160.055 261.075L105.835 380.338L132.089 392.274L184.057 277.965L177.379 403.356L206.18 404.889L213.247 272.213L259.891 396.621L286.897 386.496L240.252 262.086L332.804 357.415L353.498 337.325L266.029 247.232L380.339 299.199L392.275 272.945L273.012 218.725L403.98 222.033L404.709 193.202L277.047 189.976L396.621 145.144Z" fill="url(#paint0_linear_56_200)"/>
<defs>
<linearGradient id="paint0_linear_56_200" x1="391.559" y1="131.641" x2="-70.777" y2="271.533" gradientUnits="userSpaceOnUse">
<stop stop-color="#0147FF"/>
<stop offset="1" stop-color="#0147FF" stop-opacity="0"/>
</linearGradient>
</defs>
</svg>
